<svg xmlns="http://www.w3.org/2000/svg" viewBox="0 0 64 64">
  <defs>
    <linearGradient gradientUnits="userSpaceOnUse" x1="52" y1="0" x2="12" y2="64" id="gr">
      <stop offset="0" style="stop-color: rgb(228, 0, 255);"/>
      <stop offset="0.5" style="stop-color: rgb(254, 1, 144);"/>
      <stop offset="1" style="stop-color: rgb(255, 96, 0);"/>
    </linearGradient>
  </defs>
  <rect width="64" height="64" rx="7" ry="7" style="fill: url(#gr);"/>
  <path d="M 21.11 54.535 Q 18.41 54.535 16.475 53.275 Q 14.54 52.015 13.505 49.855 Q 12.47 47.695 12.47 44.995 L 12.47 19.015 Q 12.47 16.285 13.505 14.14 Q 14.54 11.995 16.475 10.735 Q 18.41 9.475 21.11 9.475 Q 23.81 9.475 25.745 10.735 Q 27.68 11.995 28.715 14.155 Q 29.75 16.315 29.75 19.015 L 29.75 44.995 Q 29.75 47.695 28.715 49.855 Q 27.68 52.015 25.745 53.275 Q 23.81 54.535 21.11 54.535 Z M 21.11 48.235 Q 22.31 48.235 22.79 47.23 Q 23.27 46.225 23.27 44.995 L 23.27 19.015 Q 23.27 17.785 22.76 16.78 Q 22.25 15.775 21.11 15.775 Q 20 15.775 19.475 16.78 Q 18.95 17.785 18.95 19.015 L 18.95 44.995 Q 18.95 46.225 19.46 47.23 Q 19.97 48.235 21.11 48.235 Z M 41.568 54.535 Q 38.898 54.535 37.218 53.275 Q 35.538 52.015 34.743 49.855 Q 33.948 47.695 33.948 44.995 L 33.948 19.015 Q 33.948 16.345 34.998 14.185 Q 36.048 12.025 37.998 10.75 Q 39.948 9.475 42.588 9.475 Q 44.598 9.475 46.203 10.21 Q 47.808 10.945 48.933 12.265 Q 50.058 13.585 50.643 15.31 Q 51.228 17.035 51.228 19.015 L 51.228 25.795 L 44.748 25.795 L 44.748 19.015 Q 44.748 17.695 44.268 16.735 Q 43.788 15.775 42.588 15.775 Q 41.418 15.775 40.923 16.78 Q 40.428 17.785 40.428 19.015 L 40.428 45.535 Q 40.428 46.825 40.938 47.8 Q 41.448 48.775 42.588 48.775 Q 43.788 48.775 44.268 47.8 Q 44.748 46.825 44.748 45.535 L 44.748 38.155 L 42.168 38.155 L 42.168 32.095 L 51.228 32.095 L 51.228 54.055 L 47.388 54.055 L 46.608 51.655 Q 45.768 53.005 44.463 53.77 Q 43.158 54.535 41.568 54.535 Z" fill="#fff"/>
</svg>
